<svg xmlns="http://www.w3.org/2000/svg" width="16.271" height="16.271" viewBox="0 0 16.271 16.271"><defs><style>.a{fill:#00b41e;}</style></defs><g transform="translate(0 0.001)"><g transform="translate(0)"><path class="a" d="M4.179,15H1.929a.646.646,0,0,1-.508-.242.664.664,0,0,1-.135-.557A7.022,7.022,0,0,1,7.974,8.64c.054,0,.108,0,.162,0s.109,0,.163,0a6.961,6.961,0,0,1,2.3.442.636.636,0,0,0,.447-1.19q-.158-.059-.318-.112a4.322,4.322,0,1,0-5.174,0A8.265,8.265,0,0,0,.042,13.942a1.931,1.931,0,0,0,1.887,2.329h2.25a.636.636,0,1,0,0-1.271ZM5.085,4.322a3.051,3.051,0,1,1,3.2,3.047l-.149,0-.149,0A3.054,3.054,0,0,1,5.085,4.322Z" transform="translate(0)"/><path class="a" d="M157.144,314a1.713,1.713,0,0,0-1.563-1h-1.986a1.683,1.683,0,0,0-1.59,1.074c-.033.087-.074.2-.117.324h-4.161a.636.636,0,0,0-.456.193l-1.092,1.125a.636.636,0,0,0,0,.888l1.112,1.132a.636.636,0,0,0,.453.19h2.066a.636.636,0,1,0,0-1.271h-1.8l-.49-.5.472-.486h4.369a.636.636,0,0,0,.617-.484,5.255,5.255,0,0,1,.209-.654.417.417,0,0,1,.4-.259h1.983a.434.434,0,0,1,.4.252,4.1,4.1,0,0,1,.376,1.62,4.226,4.226,0,0,1-.373,1.649.434.434,0,0,1-.4.26H153.58a.452.452,0,0,1-.41-.281,4.223,4.223,0,0,1-.2-.629.636.636,0,1,0-1.236.3,5.464,5.464,0,0,0,.258.818,1.714,1.714,0,0,0,1.583,1.068h2.01a1.7,1.7,0,0,0,1.563-1.023,5.5,5.5,0,0,0,.479-2.16A5.381,5.381,0,0,0,157.144,314Z" transform="translate(-141.36 -303.053)"/><ellipse class="a" cx="0.636" cy="0.636" rx="0.636" ry="0.636" transform="translate(13.061 12.457)"/></g></g></svg>