<svg xmlns="http://www.w3.org/2000/svg" width="82.119" height="96.461" viewBox="0 0 82.119 96.461"><defs><style>.a{fill:#002c56;}</style></defs><g transform="translate(-25.922 -11.933)"><g transform="translate(25.922 94.394)"><path d="M119.447,121.831a5.711,5.711,0,0,1-2.147,1.683c-1.269.52-1.96.041-1.919-1.309,0-.114-.016-.228-.041-.488-.488.577-.87,1.073-1.309,1.521-.35.35-.773.667-1.309.4s-.488-.8-.439-1.293a7.487,7.487,0,0,1,.927-2.578c.114-.228.358-.5-.155-.585-.155-.024-.309-.114-.3-.293a.305.305,0,0,1,.317-.285c.976,0,1.285-.805,1.756-1.423a1.965,1.965,0,0,1,.22-.293c.228-.2.366-.74.74-.455s-.089.577-.228.854c-.081.155-.187.3-.293.464.366.276.675.008.992.033.2.016.39.057.431.26.049.236-.171.293-.342.35a.346.346,0,0,1-.089.016c-2.44.13-2.651,2.155-3.253,3.846a.519.519,0,0,0,.138.667c.3.179.529-.033.724-.228.236-.244.4-.553.651-.764s.244-1.082.951-.455c.1.081.228-.228.325-.374a4.623,4.623,0,0,1,1.9-1.805.739.739,0,0,1,.935.081c.268.285.081.577-.041.854a3.628,3.628,0,0,1-1.935,1.87c-.236.106-.61.122-.512.512a.629.629,0,0,0,.813.415,3.652,3.652,0,0,0,1.822-1.171c.187-.179.358-.878.813-.138.171.276.358-.366.7-.211.146.342-.179.659-.114,1.025a.906.906,0,0,0,.561.773.56.56,0,0,0,.675-.13.746.746,0,0,0,.016-.935,1.377,1.377,0,0,0-.138-.236c-.464-.659-.829-1.358-.285-2.106a2.6,2.6,0,0,1,2.407-1.082c.675.049.919.472.642,1.082a1.622,1.622,0,0,1-.895.886c-.35.13-.87.512-1.057.089-.22-.5.464-.366.732-.537.293-.179.683-.325.5-.74-.163-.382-.52-.2-.805-.089-1.187.447-1.317,1.049-.529,2.464.439.789.317,1.447-.333,1.838a1.472,1.472,0,0,1-2.017-.48c-.26-.374-.114-.764-.13-1.147a.293.293,0,0,0,.138-.431C119.594,121.579,119.5,121.725,119.447,121.831Zm-3.171-.114a3.085,3.085,0,0,0,1.634-1.236c.106-.146.244-.317.106-.48-.155-.179-.325-.024-.48.073A3.432,3.432,0,0,0,116.276,121.717Z" transform="translate(-42.051 -113.902)"/><path d="M28.108,123.505a2.167,2.167,0,0,1-1.748-.667A1.235,1.235,0,0,1,26,121.5a1.76,1.76,0,0,1,1.236-1.138c.211-.057.464-.057.561.179.114.276-.146.366-.333.455-.5.244-.8.61-.594,1.179a1.125,1.125,0,0,0,1.2.675,2.734,2.734,0,0,0,1.407-.366,1.28,1.28,0,0,0,.569-1.935c-.35-.642-.773-1.252-1.138-1.887a2.239,2.239,0,0,1-.089-2.212,5.27,5.27,0,0,1,3.911-2.895,1.144,1.144,0,0,1,1.293.5,1.237,1.237,0,0,1-.114,1.309,5.537,5.537,0,0,1-2.716,2.244c-.26.106-.561.236-.716-.106-.171-.382.187-.455.431-.553a5,5,0,0,0,2.171-1.5c.228-.285.512-.6.244-.984s-.651-.268-1.008-.154a4.752,4.752,0,0,0-2.09,1.293,2.354,2.354,0,0,0-.333,3.318c.22.366.464.724.683,1.09q1.354,2.269-1.114,3.269A3.445,3.445,0,0,1,28.108,123.505Z" transform="translate(-25.922 -113.372)"/><path d="M82.51,117.576c.968-.114,1.724-.211,2.48-.293.285-.033.618-.024.634.342.016.309-.309.333-.553.358-.789.1-1.586.187-2.374.293a.96.96,0,0,0-.789.4A16.969,16.969,0,0,0,80.2,122.4a19.813,19.813,0,0,1,2.683-.634c.276-.016.553-.024.829-.016.252.008.529.057.512.39-.016.285-.276.293-.488.3a9.979,9.979,0,0,0-2.96.594c-.447.155-.878.805-1.391.317-.529-.5,0-1.041.179-1.513a31.982,31.982,0,0,1,3.415-6.392c.2-.293.569-.545.236-1.041-.2-.3.179-.472.447-.537a18.806,18.806,0,0,1,4.1-.529c.285-.008.618.033.577.415-.033.333-.342.39-.634.382a15.373,15.373,0,0,0-2.659.22,1,1,0,0,0-.829.585C83.738,115.787,83.161,116.576,82.51,117.576Z" transform="translate(-35.868 -113.339)"/><path d="M88.9,118.855c.488.016.935-.35,1.439-.187.26.089.569.211.5.553-.073.415-.407.317-.651.187a1.394,1.394,0,0,0-1.244.024c-.529.2-1.293.317-.431,1.13a1.682,1.682,0,0,1,.276,1.317,8.521,8.521,0,0,1-1.813,4.822c-.358.472-.829.927-1.48.618-.6-.285-.529-.919-.455-1.472a15.557,15.557,0,0,1,1.1-3.594c.2-.5.707-.96.317-1.6-.041-.065.089-.3.2-.374a6.173,6.173,0,0,0,1.643-2.5,17.3,17.3,0,0,1,2.513-3.611c.187-.2.431-.585.74-.26.244.252-.081.5-.244.7a16.993,16.993,0,0,0-2.667,4.042c-.089.065-.187.155-.1.252C88.676,119.051,88.8,118.945,88.9,118.855Zm-.683,3.375a1.662,1.662,0,0,0-.26-1.285c-.2-.228-.407-.293-.553.049a18.983,18.983,0,0,0-1.667,4.814c-.041.285-.049.594.236.732.317.163.5-.13.659-.342A8.236,8.236,0,0,0,88.22,122.23Z" transform="translate(-36.959 -113.422)"/><path d="M67.826,122.377a5.463,5.463,0,0,1-2.318,1.748c-1.228.423-1.944-.187-1.7-1.464a4.05,4.05,0,0,1,2.277-2.83.707.707,0,0,1,.927.057c.268.285.114.585-.008.854a3.715,3.715,0,0,1-1.935,1.87c-.252.114-.691.122-.512.569a.682.682,0,0,0,.854.358,3.961,3.961,0,0,0,1.553-.935c.293-.228.455-1.147,1.122-.342.106.122.309-.374.659-.22a6.853,6.853,0,0,0-.155,1.008.766.766,0,0,0,.545.773.6.6,0,0,0,.74-.2c.228-.285.114-.577-.033-.862a2.493,2.493,0,0,0-.187-.317c-.455-.626-.789-1.317-.26-2.025a2.635,2.635,0,0,1,2.5-1.09c.667.065.805.512.569,1.065a2.021,2.021,0,0,1-1.578,1.13c-.2.049-.39.008-.423-.22-.024-.171.114-.268.276-.309a2.51,2.51,0,0,0,.35-.114c.358-.146.886-.268.651-.781-.2-.439-.651-.155-.976,0-1.025.488-1.138,1.057-.439,2.228.333.561.553,1.114.089,1.7a1.362,1.362,0,0,1-1.586.431c-.927-.317-.935-1.1-.829-1.9.089-.163.407-.333.138-.512C67.932,121.93,67.9,122.239,67.826,122.377Zm-3.139-.114a3.094,3.094,0,0,0,1.594-1.228c.106-.146.252-.325.1-.48-.211-.228-.39.008-.545.114A3.248,3.248,0,0,0,64.687,122.263Z" transform="translate(-32.991 -114.456)"/><path d="M40.452,120.739a3.21,3.21,0,0,1-1.887,2.48.574.574,0,0,1-.707-.537,1.526,1.526,0,0,1,.065-.634,21.724,21.724,0,0,1,4.245-7.636c.35-.4.821-.96,1.391-.537.545.407.171,1.041-.073,1.5a16.454,16.454,0,0,1-3.887,4.838,2.447,2.447,0,0,0-.838,1.269c-.065.276-.374.651-.041.829.35.187.569-.236.8-.464C39.842,121.511,39.956,120.991,40.452,120.739Zm-.675-1.456a12.4,12.4,0,0,0,3.18-4.123c.073-.146.211-.374.008-.488-.276-.163-.455.106-.6.276A14.922,14.922,0,0,0,39.777,119.283Z" transform="translate(-28.15 -113.411)"/><path d="M60.6,122.377a6.263,6.263,0,0,0-1.252,1.691c-.122.2-.285.472-.569.333s-.179-.439-.1-.651a17.662,17.662,0,0,1,1.529-2.936c.146-.236.268-.642.659-.488.415.171-.073.537.122.854.431-.293.829-.594,1.26-.862.171-.106.415-.228.585-.016s.033.4-.089.585a17.232,17.232,0,0,0-1.1,1.586,2.239,2.239,0,0,0-.26,2.187c.089.187.252.415-.024.561s-.464-.049-.594-.276c-.472-.813-.122-1.6.065-2.4.033-.1.122-.26.089-.293C60.761,122.092,60.688,122.271,60.6,122.377Z" transform="translate(-32.025 -114.618)"/><path d="M108.882,121.015c.382-.244.764-.5,1.155-.732a.387.387,0,0,1,.512.049c.146.171.024.35-.073.5-.366.529-.781,1.025-1.1,1.578a2.3,2.3,0,0,0-.309,2.261c.089.187.268.407,0,.553s-.464-.016-.6-.252a2.23,2.23,0,0,1-.122-1.781,12.25,12.25,0,0,1,.472-1.269,5.726,5.726,0,0,0-1.675,1.968c-.155.244-.276.659-.651.5-.48-.2-.163-.61-.041-.862.488-.984,1.008-1.96,1.569-2.9.244-.407.6-.642.707.122-.081.106-.211.228-.089.358C108.727,121.21,108.825,121.121,108.882,121.015Zm-.252.285c-.024-.024-.049-.057-.065-.057a.3.3,0,0,0-.114.057c.016.016.041.057.057.057C108.548,121.34,108.589,121.316,108.63,121.3Z" transform="translate(-40.926 -114.622)"/><path d="M105.441,122.057a4.376,4.376,0,0,1-2.732,2.244c-.935.2-1.472-.268-1.439-1.228a4.359,4.359,0,0,1,2.44-3.212.719.719,0,0,1,.781.073c.285.26.187.561.065.846a3.685,3.685,0,0,1-1.911,1.895c-.252.114-.716.122-.577.553.146.464.585.48,1,.366a3.711,3.711,0,0,0,1.634-1.138A.788.788,0,0,1,105.441,122.057Zm-3.277.285a2.9,2.9,0,0,0,1.716-1.334c.081-.122.171-.276,0-.4-.146-.106-.285-.008-.415.073A3.8,3.8,0,0,0,102.164,122.342Z" transform="translate(-39.998 -114.543)"/><path d="M44.036,123.372c-.211.171-.268.2-.309.244-.39.455-.773,1.155-1.464.764-.756-.423-.407-1.187-.2-1.813a4.659,4.659,0,0,1,1.358-2.033c.171-.146.39-.39.626-.13.187.211-.033.382-.163.545a6.256,6.256,0,0,0-1.236,2.025c-.073.22-.244.5.024.667.252.155.455-.089.618-.268a6.493,6.493,0,0,0,1.114-1.887,4.473,4.473,0,0,1,.317-.659c.13-.2.276-.472.569-.333s.171.415.073.642c-.163.358-.358.707-.52,1.073-.317.691-.415,1.35.317,1.87.179.13.374.276.2.52-.146.211-.382.163-.585.089C44.215,124.518,44.069,124.03,44.036,123.372Z" transform="translate(-28.889 -114.637)"/><path d="M96.4,120.512a3.7,3.7,0,0,0-2.171,2.716c.016.618.39.707.878.512a3.978,3.978,0,0,0,1.35-1.09c.22-.228.317-.61.732-.626a3.353,3.353,0,0,1-2.765,2.472,1.058,1.058,0,0,1-.895-1.423,5.071,5.071,0,0,1,2.163-3.09c.317-.22.716-.464,1.1-.122.407.366.163.8.008,1.187a1.8,1.8,0,0,1-.382.512c-.122.122-.293.317-.464.187-.252-.187-.033-.366.1-.529A1.036,1.036,0,0,0,96.4,120.512Z" transform="translate(-38.545 -114.526)"/><path d="M58.066,120.65a6.432,6.432,0,0,1-2.009,3.415.963.963,0,0,1-1.187.211.93.93,0,0,1-.358-1.065,4.88,4.88,0,0,1,2.383-3.537C57.684,119.219,58.139,119.553,58.066,120.65Zm-2.83,2.22c-.033.293-.065.52.179.634a.575.575,0,0,0,.651-.2c.756-.691.634-1.854,1.366-2.57.106-.106.033-.3-.114-.39a.361.361,0,0,0-.423.065A4.333,4.333,0,0,0,55.236,122.87Z" transform="translate(-31.258 -114.486)"/><path d="M50.348,121.99a3.519,3.519,0,0,1-2.651,2.537A.99.99,0,0,1,46.64,123.4a4.994,4.994,0,0,1,2.651-3.627c.618-.179.87.106.846.7a1.06,1.06,0,0,1-.163.52c-.22.342-.472.976-.87.724s.293-.537.374-.87c.016-.089.049-.171.073-.26-.374-.252-.585.073-.781.252a4.89,4.89,0,0,0-1.325,2.065.687.687,0,0,0,.138.846c.309.244.594.073.854-.065a4.668,4.668,0,0,0,1.171-1.016A1.651,1.651,0,0,1,50.348,121.99Z" transform="translate(-29.793 -114.532)"/><path d="M33.269,123.333a4.918,4.918,0,0,1,2.448-3.684c.74-.415,1.252-.073,1.122.756a5.9,5.9,0,0,1-2.057,3.692.94.94,0,0,1-1.106.2A.9.9,0,0,1,33.269,123.333Zm.724-.447c-.024.293-.049.52.187.634.26.122.455-.041.651-.2.805-.691.651-1.878,1.382-2.61.041-.041-.008-.236-.065-.325a.278.278,0,0,0-.407-.016A4.337,4.337,0,0,0,33.993,122.886Z" transform="translate(-27.294 -114.485)"/><path d="M98.813,124.6a.328.328,0,0,1-.317-.455,10.571,10.571,0,0,1,2.057-4.05.271.271,0,0,1,.4-.081.219.219,0,0,1,.081.317,19.781,19.781,0,0,0-2.017,4.1C98.983,124.5,98.878,124.546,98.813,124.6Z" transform="translate(-39.477 -114.576)"/><path d="M93.357,120.214c-.081.138-.146.276-.228.407a14.757,14.757,0,0,0-1.675,3.456c-.081.236-.13.61-.52.472-.325-.114-.179-.4-.106-.626a11.433,11.433,0,0,1,1.854-3.659c.122-.163.252-.374.52-.26C93.259,120.027,93.292,120.133,93.357,120.214Z" transform="translate(-38.03 -114.578)"/><path d="M51.879,124.6c-.268-.081-.3-.285-.236-.512a10.892,10.892,0,0,1,1.968-3.911c.114-.138.244-.309.464-.179s.122.309.016.464a16.008,16.008,0,0,0-1.838,3.789C52.2,124.423,52.107,124.6,51.879,124.6Z" transform="translate(-30.722 -114.575)"/><path d="M103.25,116.932a1.2,1.2,0,0,1-.87.9.306.306,0,0,1-.325-.431,1.145,1.145,0,0,1,.927-.895C103.234,116.485,103.242,116.7,103.25,116.932Z" transform="translate(-40.141 -113.931)"/><path d="M56.38,116.888a1.183,1.183,0,0,1-.8.927c-.26.081-.407-.13-.374-.366a1.11,1.11,0,0,1,.838-.951C56.25,116.449,56.38,116.6,56.38,116.888Z" transform="translate(-31.393 -113.927)"/><path d="M95.531,116.883a1.269,1.269,0,0,1-.862.943c-.244.057-.4-.171-.342-.407a1.106,1.106,0,0,1,.895-.911C95.417,116.477,95.531,116.655,95.531,116.883Z" transform="translate(-38.699 -113.93)"/></g><g transform="translate(34.629 11.933)"><path class="a" d="M99.1,76.921c0-4.806.016-9.612-.016-14.418-.008-.7.1-.951.878-.943,4.277.041,8.555.033,12.832,0,.724-.008.943.155.943.911q-.049,10.514-.008,21.029a1.346,1.346,0,0,1-.626,1.212,59.812,59.812,0,0,1-13.239,7.376c-.7.285-.789.13-.781-.553.024-4.863.008-9.734.016-14.613Z" transform="translate(-48.297 -21.204)"/><path class="a" d="M50.958,29.3c0,3.985-.016,7.969.016,11.954.008.651-.146.846-.813.829-2.342-.041-4.676-.016-7.018,0-1.179.008-1.781.691-1.773,1.976s.6,1.976,1.781,1.976c2.309.008,4.611.041,6.92-.016.773-.016,1,.22.895.943a8.1,8.1,0,0,0-.016,1.09c.008,2.017.008,2.017-2.057,2.017-3.757,0-7.514-.016-11.263.016-.724.008-1.008-.1-1-.943q.061-10.771.008-21.541a2.008,2.008,0,0,1,.626-1.561A45.326,45.326,0,0,1,50.1,16.965c.781-.374.886-.236.878.569C50.942,21.461,50.958,25.381,50.958,29.3Z" transform="translate(-36.63 -12.836)"/><path class="a" d="M78.916,30.6c0-5.928.016-11.856-.016-17.776-.008-.764.2-.927.935-.886a51.4,51.4,0,0,1,10.6,1.748.981.981,0,0,1,.886,1.13Q91.268,27.564,91.3,40.3c0,.659-.114.943-.846.9a25.674,25.674,0,0,0-2.96,0c-.626.033-.764-.2-.756-.8.024-3.651-.008-7.31.024-10.962.008-.74-.146-1.106-.968-1.008-.838.106-1.944-.35-2.472.187s-.171,1.626-.171,2.48c-.016,4.342.016,8.693-.024,13.035-.008.838.252,1.057,1.057,1.041,2.106-.057,4.212,0,6.318-.033.659-.016.895.2.8.846a8,8,0,0,0-.016,1.082c-.008,2.114-.008,2.114-2.171,2.114-3.1,0-6.188-.024-9.287.016-.724.008-.935-.146-.927-.911C78.932,42.392,78.916,36.5,78.916,30.6Z" transform="translate(-44.527 -11.933)"/><path class="a" d="M59.2,31.62c0-5.53.008-11.067-.016-16.6,0-.634.171-.935.781-1.114A49.884,49.884,0,0,1,70.329,12c.7-.057.878.13.878.829Q71.17,26.611,71.2,40.386c0,.651-.163.878-.821.821-1.138-.106-2.667.472-3.3-.22-.561-.61-.163-2.122-.163-3.236-.008-2.8-.024-5.595.008-8.4.008-.642-.1-.984-.846-.9-.878.1-2.009-.35-2.578.171-.585.537-.179,1.675-.187,2.553-.024,4.277.024,8.563-.033,12.84-.016.984.285,1.2,1.22,1.163,1.944-.081,3.887,0,5.831-.033.659-.016.968.106.886.854-.114,1.041.431,2.44-.211,3.025-.561.512-1.935.155-2.952.163-2.635.008-5.269-.033-7.9.024-.813.016-.951-.244-.951-.992C59.213,42.687,59.2,37.149,59.2,31.62Z" transform="translate(-40.843 -11.943)"/><path class="a" d="M50.958,80.877c0,3.659-.016,7.31.016,10.97.008.707-.146.764-.764.512A47.093,47.093,0,0,1,37.2,84.235a1.468,1.468,0,0,1-.561-1.26q.024-10.283-.008-20.557c0-.634.138-.846.8-.838q6.379.049,12.751,0c.7-.008.846.236.781.854-.089.87.374,2.041-.2,2.553-.488.431-1.626.146-2.48.146-1.748.008-3.489-.008-5.237.008-1.114.008-1.675.691-1.683,1.968,0,1.244.6,1.992,1.667,2,2.374.016,4.741.033,7.115-.016.659-.008.829.163.821.821-.016,3.651,0,7.3-.008,10.962Z" transform="translate(-36.63 -21.208)"/><path class="a" d="M91.272,77.693c0,5.034-.016,10.075.016,15.109.008.675-.163.968-.838,1.147A60.278,60.278,0,0,1,79.765,95.77c-.707.057-.878-.122-.878-.829q.037-12.49,0-24.989c0-.781.236-.951.951-.9a19.355,19.355,0,0,0,2.57,0c.675-.049.821.2.813.838-.033,3.326.008,6.652-.033,9.978-.008.764.187,1.065.976.968.838-.106,1.935.358,2.472-.179s.163-1.626.163-2.472c.016-4.05-.008-8.1.024-12.149.008-.732-.179-.968-.927-.951-2.074.049-4.147,0-6.221.033-.6.008-.821-.155-.781-.773.065-.878-.276-2.017.163-2.586.464-.6,1.659-.187,2.529-.2,2.927-.033,5.863.016,8.79-.024.74-.008.935.2.935.935-.033,5.066-.016,10.14-.016,15.215C91.28,77.693,91.28,77.693,91.272,77.693Z" transform="translate(-44.513 -21.18)"/><path class="a" d="M71.169,78.764c0,5.4-.008,10.807.016,16.207,0,.642-.081.927-.829.886a51.449,51.449,0,0,1-10.425-1.634.869.869,0,0,1-.764-1.008q.037-11.612,0-23.224c0-.651.089-.951.829-.895a18.067,18.067,0,0,0,2.57,0c.691-.049.8.22.789.838-.016,3.293.016,6.587-.016,9.88-.008.74.138,1.1.96.992.838-.106,1.935.35,2.472-.179s.163-1.626.163-2.472c.016-3.985-.024-7.969.033-11.954.008-.9-.26-1.1-1.114-1.073-1.976.065-3.952,0-5.928.033-.545.008-.732-.138-.748-.716-.081-2.838-.1-2.838,2.757-2.838,2.8,0,5.6.024,8.4-.016.7-.008.87.2.862.886-.024,5.416-.016,10.848-.024,16.288Z" transform="translate(-40.837 -21.21)"/><path class="a" d="M99.086,45.694c0-2.472.024-4.936-.016-7.408-.008-.626.179-.756.773-.756q6.526.037,13.043,0c.634,0,.838.138.838.805q-.049,7.4,0,14.816c0,.683-.228.813-.846.813-4.351-.024-8.693-.033-13.043,0-.618,0-.773-.155-.764-.764C99.1,50.7,99.086,48.2,99.086,45.694Z" transform="translate(-48.295 -16.715)"/><path class="a" d="M99.158,16.23a46.92,46.92,0,0,1,8.376,4.391,53.657,53.657,0,0,1,5.489,4.18,1.715,1.715,0,0,1,.7,1.6,8.612,8.612,0,0,0,0,1.773c.089.789-.138,1.057-.992,1.049-4.277-.049-8.555-.024-12.832-.016-.5,0-.846.024-.838-.691.041-3.976.016-7.961.016-11.937A3.135,3.135,0,0,1,99.158,16.23Z" transform="translate(-48.293 -12.736)"/></g></g></svg>